<svg width="40" height="40" viewBox="0 0 40 40" fill="none" xmlns="http://www.w3.org/2000/svg">
<path d="M0 8C0 3.58172 3.58172 0 8 0H32C36.4183 0 40 3.58172 40 8V32C40 36.4183 36.4183 40 32 40H8C3.58172 40 0 36.4183 0 32V8Z" fill="#2563EB"/>
<path d="M15.6665 15V11.667C15.6665 11.1147 16.1142 10.667 16.6665 10.667C17.2188 10.667 17.6665 11.1147 17.6665 11.667V15C17.6665 15.5523 17.2188 16 16.6665 16C16.1142 16 15.6665 15.5523 15.6665 15Z" fill="white"/>
<path d="M22.3335 15V11.667C22.3335 11.1147 22.7812 10.667 23.3335 10.667C23.8858 10.667 24.3335 11.1147 24.3335 11.667V15C24.3335 15.5523 23.8858 16 23.3335 16C22.7812 16 22.3335 15.5523 22.3335 15Z" fill="white"/>
<path d="M26.5 15C26.5 14.6318 26.2012 14.333 25.833 14.333H14.167C13.7988 14.333 13.5 14.6318 13.5 15V26.666C13.5 27.0342 13.7988 27.333 14.167 27.333H25.833C26.2012 27.333 26.5 27.0342 26.5 26.666V15ZM28.5 26.666C28.5 28.1388 27.3058 29.333 25.833 29.333H14.167C12.6942 29.333 11.5 28.1388 11.5 26.666V15C11.5 13.5272 12.6942 12.333 14.167 12.333H25.833C27.3058 12.333 28.5 13.5272 28.5 15V26.666Z" fill="white"/>
<path d="M27.5 17.333C28.0523 17.333 28.5 17.7807 28.5 18.333C28.5 18.8853 28.0523 19.333 27.5 19.333H12.5C11.9477 19.333 11.5 18.8853 11.5 18.333C11.5 17.7807 11.9477 17.333 12.5 17.333H27.5Z" fill="white"/>
</svg>
