<svg width="98" height="23" viewBox="0 0 98 23" fill="none" xmlns="http://www.w3.org/2000/svg">
<path d="M92.5728 16.6564C92.5728 17.2111 92.7434 17.6057 93.0848 17.8404C93.4474 18.0751 93.9488 18.1924 94.5888 18.1924C94.9088 18.1924 95.2394 18.1711 95.5808 18.1284C95.9221 18.0644 96.2208 17.9897 96.4768 17.9044C96.6688 18.1391 96.8288 18.4057 96.9568 18.7044C97.1061 18.9817 97.1808 19.3231 97.1808 19.7284C97.1808 20.5391 96.8714 21.2004 96.2528 21.7124C95.6554 22.2244 94.5888 22.4804 93.0528 22.4804C91.1754 22.4804 89.7248 22.0537 88.7008 21.2004C87.6981 20.3471 87.1968 18.9604 87.1968 17.0404V3.34442C87.4314 3.28042 87.7621 3.21641 88.1888 3.15241C88.6368 3.06708 89.1061 3.02441 89.5968 3.02441C90.5354 3.02441 91.2608 3.19508 91.7728 3.53642C92.3061 3.85641 92.5728 4.54975 92.5728 5.61642V7.66442H96.7648C96.8928 7.89908 97.0101 8.19775 97.1168 8.56042C97.2448 8.90175 97.3088 9.28575 97.3088 9.71242C97.3088 10.4591 97.1381 11.0031 96.7968 11.3444C96.4768 11.6644 96.0394 11.8244 95.4848 11.8244H92.5728V16.6564Z" fill="#2563EB"/>
<path d="M83.3988 21.8723C83.1642 21.9363 82.7908 22.0003 82.2788 22.0643C81.7882 22.1283 81.2975 22.1603 80.8068 22.1603C80.3162 22.1603 79.8788 22.1176 79.4948 22.0323C79.1322 21.9683 78.8228 21.8403 78.5668 21.6483C78.3108 21.4563 78.1188 21.1896 77.9908 20.8483C77.8628 20.507 77.7988 20.059 77.7988 19.5043V2.60831C78.0335 2.56565 78.4068 2.51231 78.9188 2.44831C79.4308 2.36298 79.9215 2.32031 80.3908 2.32031C80.8815 2.32031 81.3082 2.36298 81.6708 2.44831C82.0548 2.51231 82.3748 2.64031 82.6308 2.83231C82.8868 3.02431 83.0788 3.29098 83.2068 3.63231C83.3348 3.97365 83.3988 4.42165 83.3988 4.97631V21.8723Z" fill="#2563EB"/>
<path d="M68.0444 22.5118C66.7858 22.5118 65.6124 22.3411 64.5244 21.9998C63.4578 21.6371 62.5191 21.1038 61.7084 20.3998C60.9191 19.6958 60.2898 18.8104 59.8204 17.7438C59.3724 16.6771 59.1484 15.4291 59.1484 13.9998C59.1484 12.5918 59.3724 11.3864 59.8204 10.3838C60.2898 9.35977 60.8978 8.52777 61.6444 7.88777C62.3911 7.22644 63.2444 6.74644 64.2044 6.44777C65.1644 6.12777 66.1458 5.96777 67.1484 5.96777C68.2791 5.96777 69.3031 6.13844 70.2204 6.47977C71.1591 6.82111 71.9591 7.29044 72.6204 7.88777C73.3031 8.48511 73.8258 9.19977 74.1884 10.0318C74.5724 10.8638 74.7644 11.7704 74.7644 12.7518C74.7644 13.4771 74.5618 14.0318 74.1564 14.4158C73.7511 14.7998 73.1858 15.0451 72.4604 15.1518L64.5564 16.3358C64.7911 17.0398 65.2711 17.5731 65.9964 17.9358C66.7218 18.2771 67.5538 18.4478 68.4924 18.4478C69.3671 18.4478 70.1884 18.3411 70.9564 18.1278C71.7458 17.8931 72.3858 17.6264 72.8764 17.3278C73.2178 17.5411 73.5058 17.8398 73.7404 18.2238C73.9751 18.6078 74.0924 19.0131 74.0924 19.4398C74.0924 20.3998 73.6444 21.1144 72.7484 21.5838C72.0658 21.9464 71.2978 22.1918 70.4444 22.3198C69.5911 22.4478 68.7911 22.5118 68.0444 22.5118ZM67.1484 9.93577C66.6364 9.93577 66.1884 10.0211 65.8044 10.1918C65.4418 10.3624 65.1431 10.5864 64.9084 10.8638C64.6738 11.1198 64.4924 11.4184 64.3644 11.7598C64.2578 12.0798 64.1938 12.4104 64.1724 12.7518L69.6444 11.8558C69.5804 11.4291 69.3458 11.0024 68.9404 10.5758C68.5351 10.1491 67.9378 9.93577 67.1484 9.93577Z" fill="#2563EB"/>
<path d="M53.4009 10.2558C52.8676 10.2558 52.3556 10.3411 51.8649 10.5118C51.3956 10.6824 50.9796 10.9384 50.6169 11.2798C50.2756 11.5998 49.9983 12.0051 49.7849 12.4958C49.5716 12.9864 49.4649 13.5624 49.4649 14.2238C49.4649 15.5464 49.8383 16.5384 50.5849 17.1998C51.3529 17.8611 52.2809 18.1918 53.3689 18.1918C54.0089 18.1918 54.5636 18.1171 55.0329 17.9678C55.5023 17.8184 55.9183 17.6584 56.2809 17.4878C56.7076 17.7864 57.0276 18.1171 57.2409 18.4798C57.4543 18.8211 57.5609 19.2371 57.5609 19.7278C57.5609 20.6024 57.1449 21.2851 56.3129 21.7758C55.4809 22.2451 54.3289 22.4798 52.8569 22.4798C51.5129 22.4798 50.2969 22.2878 49.2089 21.9038C48.1209 21.4984 47.1823 20.9438 46.3929 20.2398C45.6249 19.5144 45.0276 18.6504 44.6009 17.6478C44.1743 16.6451 43.9609 15.5358 43.9609 14.3198C43.9609 12.9118 44.1849 11.6851 44.6329 10.6398C45.1023 9.57311 45.7316 8.69844 46.5209 8.01577C47.3103 7.33311 48.2169 6.82111 49.2409 6.47977C50.2863 6.13844 51.3849 5.96777 52.5369 5.96777C54.0729 5.96777 55.2569 6.24511 56.0889 6.79977C56.9209 7.35444 57.3369 8.06911 57.3369 8.94377C57.3369 9.34911 57.2409 9.73311 57.0489 10.0958C56.8569 10.4371 56.6329 10.7358 56.3769 10.9918C56.0143 10.8211 55.5769 10.6611 55.0649 10.5118C54.5529 10.3411 53.9983 10.2558 53.4009 10.2558Z" fill="#2563EB"/>
<path d="M33.8825 18.5438C34.2452 18.5438 34.6398 18.5118 35.0665 18.4478C35.5145 18.3624 35.8452 18.2558 36.0585 18.1278V15.5678L33.7545 15.7598C33.1572 15.8024 32.6665 15.9304 32.2825 16.1438C31.8985 16.3571 31.7065 16.6771 31.7065 17.1038C31.7065 17.5304 31.8665 17.8824 32.1865 18.1598C32.5278 18.4158 33.0932 18.5438 33.8825 18.5438ZM33.6265 5.96777C34.7785 5.96777 35.8238 6.08511 36.7625 6.31977C37.7225 6.55444 38.5332 6.91711 39.1945 7.40777C39.8772 7.87711 40.3998 8.48511 40.7625 9.23177C41.1252 9.95711 41.3065 10.8211 41.3065 11.8238V18.9918C41.3065 19.5464 41.1465 20.0051 40.8265 20.3678C40.5278 20.7091 40.1652 21.0078 39.7385 21.2638C38.3518 22.0958 36.3998 22.5118 33.8825 22.5118C32.7518 22.5118 31.7278 22.4051 30.8105 22.1918C29.9145 21.9784 29.1358 21.6584 28.4745 21.2318C27.8345 20.8051 27.3332 20.2611 26.9705 19.5998C26.6292 18.9384 26.4585 18.1704 26.4585 17.2958C26.4585 15.8238 26.8958 14.6931 27.7705 13.9038C28.6452 13.1144 29.9998 12.6238 31.8345 12.4318L36.0265 11.9838V11.7598C36.0265 11.1411 35.7492 10.7038 35.1945 10.4478C34.6612 10.1704 33.8825 10.0318 32.8585 10.0318C32.0478 10.0318 31.2585 10.1171 30.4905 10.2878C29.7225 10.4584 29.0292 10.6718 28.4105 10.9278C28.1332 10.7358 27.8985 10.4478 27.7065 10.0638C27.5145 9.65844 27.4185 9.24244 27.4185 8.81577C27.4185 8.26111 27.5465 7.82377 27.8025 7.50377C28.0798 7.16244 28.4958 6.87444 29.0505 6.63977C29.6692 6.40511 30.3945 6.23444 31.2265 6.12777C32.0798 6.02111 32.8798 5.96777 33.6265 5.96777Z" fill="#2563EB"/>
<path d="M23.7935 21.9677C23.5588 22.0103 23.2069 22.0637 22.7375 22.1277C22.2895 22.213 21.8308 22.2557 21.3615 22.2557C20.8922 22.2557 20.4655 22.2237 20.0815 22.1597C19.7188 22.0957 19.4095 21.9677 19.1535 21.7757C18.8975 21.5837 18.6948 21.3277 18.5455 21.0077C18.4175 20.6663 18.3535 20.229 18.3535 19.6957V1.13566C18.5882 1.09299 18.9295 1.03966 19.3775 0.975657C19.8468 0.890323 20.3162 0.847656 20.7855 0.847656C21.2549 0.847656 21.6708 0.879656 22.0335 0.943655C22.4175 1.00766 22.7375 1.13566 22.9935 1.32766C23.2495 1.51966 23.4415 1.78632 23.5695 2.12766C23.7188 2.44766 23.7935 2.87432 23.7935 3.40766V21.9677Z" fill="#2563EB"/>
<path d="M7.34408 11.6005C8.24008 11.6005 8.92275 11.3978 9.39208 10.9925C9.88275 10.5658 10.1281 9.92579 10.1281 9.07245C10.1281 8.26179 9.87208 7.64312 9.36008 7.21645C8.86941 6.76845 8.14408 6.54445 7.18408 6.54445C6.84275 6.54445 6.55475 6.55512 6.32008 6.57645C6.10675 6.57645 5.88274 6.59779 5.64808 6.64045V11.6005H7.34408ZM5.68008 21.8725C5.44541 21.9365 5.07208 22.0005 4.56008 22.0645C4.06941 22.1285 3.57874 22.1605 3.08808 22.1605C2.59741 22.1605 2.16008 22.1178 1.77608 22.0325C1.41341 21.9685 1.10408 21.8405 0.848078 21.6485C0.592078 21.4565 0.400078 21.1898 0.272078 20.8485C0.144078 20.5071 0.0800781 20.0591 0.0800781 19.5045V4.43245C0.0800781 3.98445 0.197411 3.64312 0.432078 3.40845C0.688078 3.15245 1.02941 2.94979 1.45608 2.80045C2.18141 2.54445 3.00274 2.36312 3.92008 2.25645C4.85875 2.12845 5.79741 2.06445 6.73608 2.06445C9.68008 2.06445 11.9307 2.69379 13.4881 3.95245C15.0454 5.21112 15.8241 6.91779 15.8241 9.07245C15.8241 10.1178 15.6534 11.0671 15.3121 11.9205C14.9921 12.7525 14.5014 13.4778 13.8401 14.0965C13.2001 14.6938 12.3787 15.1631 11.3761 15.5045C10.3947 15.8245 9.25341 15.9845 7.95208 15.9845H5.68008V21.8725Z" fill="#2563EB"/>
</svg>
